<svg width="20" height="20" viewBox="0 0 20 20" fill="none" xmlns="http://www.w3.org/2000/svg">
<path fill-rule="evenodd" clip-rule="evenodd" d="M0.738281 8.29078C0.738281 12.4619 4.11965 15.8433 8.29078 15.8433C12.4619 15.8433 15.8433 12.4619 15.8433 8.29078C15.8433 4.11965 12.4619 0.738281 8.29078 0.738281C4.11965 0.738281 0.738281 4.11965 0.738281 8.29078ZM14.4183 8.29078C14.4183 11.6749 11.6749 14.4183 8.29078 14.4183C4.90666 14.4183 2.16328 11.6749 2.16328 8.29078C2.16328 4.90666 4.90666 2.16328 8.29078 2.16328C11.6749 2.16328 14.4183 4.90666 14.4183 8.29078ZM19.0546 18.047C19.3328 18.3252 19.3328 18.7763 19.0546 19.0546C18.7763 19.3328 18.3252 19.3328 18.047 19.0546L14.627 15.6346C14.3487 15.3563 14.3487 14.9052 14.627 14.627C14.9052 14.3487 15.3563 14.3487 15.6346 14.627L19.0546 18.047ZM4.30078 8.19578C4.56312 8.19578 4.77578 7.98312 4.77578 7.72078C4.77578 6.0943 6.0943 4.77578 7.72078 4.77578C7.98312 4.77578 8.19578 4.56312 8.19578 4.30078C8.19578 4.03845 7.98312 3.82578 7.72078 3.82578C5.56963 3.82578 3.82578 5.56963 3.82578 7.72078C3.82578 7.98312 4.03845 8.19578 4.30078 8.19578Z" fill="black"/>
</svg>