<svg width="20" height="20" viewBox="0 0 20 20" fill="none" xmlns="http://www.w3.org/2000/svg">
<path fill-rule="evenodd" clip-rule="evenodd" d="M0.738281 8.29005C0.738281 12.4612 4.11965 15.8425 8.29078 15.8425C12.4619 15.8425 15.8433 12.4612 15.8433 8.29005C15.8433 4.11892 12.4619 0.737549 8.29078 0.737549C4.11965 0.737549 0.738281 4.11892 0.738281 8.29005ZM14.4183 8.29005C14.4183 11.6742 11.6749 14.4175 8.29078 14.4175C4.90666 14.4175 2.16328 11.6742 2.16328 8.29005C2.16328 4.90592 4.90666 2.16255 8.29078 2.16255C11.6749 2.16255 14.4183 4.90592 14.4183 8.29005ZM19.0546 18.0462C19.3328 18.3245 19.3328 18.7756 19.0546 19.0539C18.7763 19.3321 18.3252 19.3321 18.047 19.0539L14.627 15.6339C14.3487 15.3556 14.3487 14.9045 14.627 14.6262C14.9052 14.348 15.3563 14.348 15.6346 14.6262L19.0546 18.0462ZM4.30078 8.19505C4.56312 8.19505 4.77578 7.98238 4.77578 7.72005C4.77578 6.09357 6.0943 4.77505 7.72078 4.77505C7.98312 4.77505 8.19578 4.56238 8.19578 4.30005C8.19578 4.03771 7.98312 3.82505 7.72078 3.82505C5.56963 3.82505 3.82578 5.5689 3.82578 7.72005C3.82578 7.98238 4.03845 8.19505 4.30078 8.19505Z" fill="black"/>
</svg>
