<svg width="20" height="20" viewBox="0 0 20 20" fill="none" xmlns="http://www.w3.org/2000/svg">
<path fill-rule="evenodd" clip-rule="evenodd" d="M0.737305 8.29078C0.737305 12.4619 4.11867 15.8433 8.2898 15.8433C12.4609 15.8433 15.8423 12.4619 15.8423 8.29078C15.8423 4.11965 12.4609 0.738281 8.2898 0.738281C4.11867 0.738281 0.737305 4.11965 0.737305 8.29078ZM14.4173 8.29078C14.4173 11.6749 11.6739 14.4183 8.2898 14.4183C4.90568 14.4183 2.1623 11.6749 2.1623 8.29078C2.1623 4.90666 4.90568 2.16328 8.2898 2.16328C11.6739 2.16328 14.4173 4.90666 14.4173 8.29078ZM19.0536 18.047C19.3319 18.3252 19.3319 18.7763 19.0536 19.0546C18.7754 19.3328 18.3242 19.3328 18.046 19.0546L14.626 15.6346C14.3477 15.3563 14.3477 14.9052 14.626 14.627C14.9042 14.3487 15.3554 14.3487 15.6336 14.627L19.0536 18.047ZM4.2998 8.19578C4.56214 8.19578 4.7748 7.98312 4.7748 7.72078C4.7748 6.0943 6.09333 4.77578 7.7198 4.77578C7.98214 4.77578 8.1948 4.56312 8.1948 4.30078C8.1948 4.03845 7.98214 3.82578 7.7198 3.82578C5.56866 3.82578 3.8248 5.56963 3.8248 7.72078C3.8248 7.98312 4.03747 8.19578 4.2998 8.19578Z" fill="white"/>
</svg>
