<svg width="78" height="22" viewBox="0 0 78 22" fill="none" xmlns="http://www.w3.org/2000/svg">
<path fill-rule="evenodd" clip-rule="evenodd" d="M31.1861 16.1606C30.9656 15.9385 30.5915 15.8053 30.2826 15.8053C29.7168 15.8053 29.3195 16.2581 29.3195 16.8037C29.3195 17.3127 29.6647 17.7992 30.3272 17.7992C30.5999 17.7992 30.9209 17.7176 31.0977 17.5845V17.0549H30.2751V16.6499H31.5071V17.8067C31.1777 18.0495 30.7125 18.2032 30.2984 18.2032C29.4675 18.2032 28.8496 17.5761 28.8496 16.7999C28.8496 16.0238 29.4758 15.4004 30.2789 15.4004C30.6967 15.4004 31.1424 15.5701 31.4987 15.8775L31.1861 16.1606Z" fill="#FEFEFE"/>
<path fill-rule="evenodd" clip-rule="evenodd" d="M33.5854 15.8842V16.7016H34.6611C34.8984 16.7016 35.0993 16.5151 35.0993 16.2892C35.0993 16.1879 35.0584 16.0989 34.9905 16.0258C34.8658 15.8964 34.7216 15.8842 34.5811 15.8842H33.5854ZM33.1367 18.1211V15.4805H34.5818C34.9307 15.4805 35.1727 15.577 35.3411 15.7589C35.4732 15.9014 35.5495 16.087 35.5495 16.2894C35.5495 16.6447 35.3169 16.9166 34.9717 17.045L35.5979 18.1211H35.0796L34.5176 17.1059H33.5861V18.1211H33.1367Z" fill="#FEFEFE"/>
<path fill-rule="evenodd" clip-rule="evenodd" d="M38.3433 17.7975C38.9091 17.7975 39.3548 17.3448 39.3548 16.7945C39.3548 16.249 38.9091 15.8037 38.3433 15.8037C37.7813 15.8037 37.344 16.249 37.344 16.7945C37.344 17.3448 37.7813 17.7975 38.3433 17.7975ZM38.3441 15.3984C39.1713 15.3984 39.8301 16.0218 39.8301 16.7942C39.8301 17.5788 39.1713 18.2022 38.3441 18.2022C37.5169 18.2022 36.8711 17.5788 36.8711 16.7942C36.8711 16.0218 37.5169 15.3984 38.3441 15.3984Z" fill="#FEFEFE"/>
<path fill-rule="evenodd" clip-rule="evenodd" d="M43.5939 15.4824V17.1847C43.5939 17.8362 43.0961 18.2046 42.4299 18.2046C41.7673 18.2046 41.2695 17.8362 41.2695 17.1847V15.4824H41.719V17.1847C41.719 17.5812 42.0325 17.7997 42.4299 17.7997C42.8309 17.7997 43.1445 17.5812 43.1445 17.1847V15.4824H43.5939Z" fill="#FEFEFE"/>
<path fill-rule="evenodd" clip-rule="evenodd" d="M45.7225 15.8842V16.7016H46.7181C46.8298 16.7016 46.987 16.6932 47.1155 16.5713C47.1918 16.4991 47.2355 16.3979 47.2355 16.2929C47.2355 16.1879 47.1955 16.0989 47.1276 16.0258C47.0066 15.8964 46.8465 15.8842 46.7181 15.8842H45.7225ZM45.2734 18.1211V15.4805H46.7185C47.0879 15.4805 47.3168 15.5855 47.4769 15.7589C47.6174 15.9126 47.6862 16.0954 47.6862 16.2894C47.6862 16.5153 47.5932 16.7141 47.4452 16.8594C47.2889 17.0094 47.0674 17.1059 46.7185 17.1059H45.7229V18.1211H45.2734Z" fill="#FEFEFE"/>
<path fill-rule="evenodd" clip-rule="evenodd" d="M34.2288 4.50345H32.4916V10.0856H30.9711V4.50345H28.8496V3.64199C28.8496 3.42826 29.0218 3.25391 29.2339 3.25391H34.6141V4.11537C34.6141 4.33003 34.4419 4.50345 34.2288 4.50345Z" fill="#FEFEFE"/>
<path fill-rule="evenodd" clip-rule="evenodd" d="M42.5673 3.643V10.0876H41.046V7.25665H38.1689V10.0876H36.6484V3.25586H37.7846C37.9967 3.25586 38.1689 3.42928 38.1689 3.643V6.0071H41.046V3.25586H42.1821C42.3952 3.25586 42.5673 3.42928 42.5673 3.643Z" fill="#FEFEFE"/>
<path fill-rule="evenodd" clip-rule="evenodd" d="M46.7607 4.43502V6.00609H50.1709V7.14783H46.7607V8.9045H50.0183C50.2314 8.9045 50.4036 9.07792 50.4036 9.29258V10.0856H45.2402V3.25391H50.4036V4.04694C50.4036 4.26067 50.2314 4.43502 50.0183 4.43502H46.7607Z" fill="#FEFEFE"/>
<path fill-rule="evenodd" clip-rule="evenodd" d="M62.9379 3.25391V10.0856H61.4752V5.54677L59.5183 8.22115H59.3629L57.4061 5.54677V10.0856H55.9434V3.25391H57.1307C57.2554 3.25391 57.3717 3.3139 57.4443 3.41701L59.4411 6.24981L61.438 3.41701C61.5096 3.3139 61.6269 3.25391 61.7515 3.25391H62.9379Z" fill="#FEFEFE"/>
<path fill-rule="evenodd" clip-rule="evenodd" d="M69.5728 7.47922L68.5847 4.78516L67.5965 7.47922H69.5728ZM69.9902 8.63172H67.1801L66.6479 10.0856H65.0586L67.771 3.25391H69.1286C69.2859 3.25391 69.4273 3.35046 69.4859 3.49669L72.1118 10.0856H70.5225L69.9902 8.63172Z" fill="#FEFEFE"/>
<path fill-rule="evenodd" clip-rule="evenodd" d="M77.9997 7.77409C77.9997 8.0928 77.9727 8.40214 77.9178 8.70117C77.8629 9.0002 77.7577 9.26548 77.6023 9.49608C77.4479 9.72761 77.2264 9.91322 76.9389 10.0529C76.6514 10.1926 76.2755 10.2629 75.8102 10.2629C75.2677 10.2629 74.809 10.1326 74.4349 9.87197C74.1632 9.68355 73.9613 9.41827 73.8292 9.07612C73.7445 8.85677 73.871 8.61305 74.0972 8.55681L75.0937 8.31121C75.1133 8.47994 75.1886 8.62336 75.3217 8.74054C75.4538 8.85771 75.6036 8.91583 75.7721 8.91583C75.9461 8.91583 76.0819 8.87177 76.1787 8.7846C76.2755 8.69648 76.3471 8.58774 76.3918 8.45745C76.4364 8.32715 76.4643 8.1856 76.4736 8.03281C76.4839 7.88001 76.4885 7.73847 76.4885 7.60817V3.25586H77.6144C77.8275 3.25586 77.9997 3.42928 77.9997 3.643V7.77409Z" fill="#FEFEFE"/>
<path fill-rule="evenodd" clip-rule="evenodd" d="M5.19321 16.4572H10.0727V11.5415H9.52282V15.6351C9.52282 15.7832 9.40372 15.9041 9.2567 15.9041H6.00925C5.86131 15.9041 5.7422 15.7832 5.7422 15.6351V12.3636C5.7422 12.2155 5.86131 12.0955 6.00925 12.0955H7.09143C7.23844 12.0955 7.35848 12.2155 7.35848 12.3636V14.2759H7.90747V11.5415H5.19321V16.4572ZM10.339 16.9938H4.92628C4.77926 16.9938 4.66016 16.8739 4.66016 16.7257V11.2729C4.66016 11.1239 4.77926 11.0039 4.92628 11.0039H8.17465C8.32167 11.0039 8.44077 11.1239 8.44077 11.2729V14.5435C8.44077 14.6925 8.32167 14.8125 8.17465 14.8125H7.09155C6.94453 14.8125 6.8245 14.6925 6.8245 14.5435V12.6312H6.2755V15.3656H8.9907V11.2729C8.9907 11.1239 9.10887 11.0039 9.25682 11.0039H10.339C10.486 11.0039 10.606 11.1239 10.606 11.2729V16.7257C10.606 16.8739 10.486 16.9938 10.339 16.9938Z" fill="#FEFEFE"/>
<path fill-rule="evenodd" clip-rule="evenodd" d="M9.52114 9.91519H10.0701V4.99951H5.19153V9.91519H7.90579V7.18082H7.35587V9.09404C7.35587 9.24215 7.23677 9.36213 7.08975 9.36213H6.00758C5.85963 9.36213 5.74052 9.24215 5.74052 9.09404V5.8216C5.74052 5.6735 5.85963 5.55351 6.00758 5.55351H9.25502C9.40204 5.55351 9.52114 5.6735 9.52114 5.8216V9.91519ZM10.338 10.4519H9.2558C9.10785 10.4519 8.98875 10.3319 8.98875 10.1838V6.08927H6.27448V8.82457H6.82348V6.9123C6.82348 6.76325 6.94351 6.64326 7.09053 6.64326H8.1727C8.31972 6.64326 8.43975 6.76325 8.43975 6.9123V10.1838C8.43975 10.3319 8.31972 10.4519 8.1727 10.4519H4.92526C4.77824 10.4519 4.6582 10.3319 4.6582 10.1838V4.73098C4.6582 4.58288 4.77824 4.46289 4.92526 4.46289H10.338C10.485 4.46289 10.605 4.58288 10.605 4.73098V10.1838C10.605 10.3319 10.485 10.4519 10.338 10.4519Z" fill="#FEFEFE"/>
<path fill-rule="evenodd" clip-rule="evenodd" d="M13.8535 9.91519H16.5678V4.99951H11.6883V9.91519H12.2373V5.8216C12.2373 5.6735 12.3573 5.55351 12.5043 5.55351H15.7518C15.8988 5.55351 16.0179 5.6735 16.0179 5.8216V9.09404C16.0179 9.24215 15.8988 9.36213 15.7518 9.36213H14.6687C14.5216 9.36213 14.4025 9.24215 14.4025 9.09404V7.18082H13.8535V9.91519ZM16.8331 10.4519H13.5857C13.4387 10.4519 13.3196 10.3319 13.3196 10.1838V6.9123C13.3196 6.76325 13.4387 6.64326 13.5857 6.64326H14.6679C14.8158 6.64326 14.9349 6.76325 14.9349 6.9123V8.82457H15.4839V6.08927H12.7696V10.1838C12.7696 10.3319 12.6505 10.4519 12.5035 10.4519H11.4204C11.2734 10.4519 11.1543 10.3319 11.1543 10.1838V4.73098C11.1543 4.58288 11.2734 4.46289 11.4204 4.46289H16.8331C16.9811 4.46289 17.1002 4.58288 17.1002 4.73098V10.1838C17.1002 10.3319 16.9811 10.4519 16.8331 10.4519Z" fill="#FEFEFE"/>
<path fill-rule="evenodd" clip-rule="evenodd" d="M11.6886 16.4572H16.5681V11.5415H13.8539V14.2759H14.4029V12.3636C14.4029 12.2155 14.522 12.0955 14.6699 12.0955H15.7521C15.8991 12.0955 16.0182 12.2155 16.0182 12.3636V15.6351C16.0182 15.7832 15.8991 15.9041 15.7521 15.9041H12.5046C12.3576 15.9041 12.2376 15.7832 12.2376 15.6351V11.5415H11.6886V16.4572ZM16.8331 16.9938H11.4204C11.2734 16.9938 11.1543 16.8739 11.1543 16.7257V11.2729C11.1543 11.1239 11.2734 11.0039 11.4204 11.0039H12.5035C12.6505 11.0039 12.7706 11.1239 12.7706 11.2729V15.3656H15.4848V12.6312H14.9349V14.5435C14.9349 14.6925 14.8158 14.8125 14.6688 14.8125H13.5866C13.4387 14.8125 13.3196 14.6925 13.3196 14.5435V11.2729C13.3196 11.1239 13.4387 11.0039 13.5866 11.0039H16.8331C16.9811 11.0039 17.1002 11.1239 17.1002 11.2729V16.7257C17.1002 16.8739 16.9811 16.9938 16.8331 16.9938Z" fill="#FEFEFE"/>
<path fill-rule="evenodd" clip-rule="evenodd" d="M11.6886 18.6377H18.7334V2.81738H11.6886V3.37044H17.9174C18.0644 3.37044 18.1835 3.49043 18.1835 3.63948V17.8157C18.1835 17.9647 18.0644 18.0847 17.9174 18.0847H11.6886V18.6377ZM18.9984 19.1759H11.4204C11.2734 19.1759 11.1543 19.0559 11.1543 18.9078V17.8166C11.1543 17.6685 11.2734 17.5485 11.4204 17.5485H17.6492V3.90856H11.4204C11.2734 3.90856 11.1543 3.78858 11.1543 3.64047V2.54934C11.1543 2.40124 11.2734 2.28125 11.4204 2.28125H18.9984C19.1464 2.28125 19.2655 2.40124 19.2655 2.54934V18.9078C19.2655 19.0559 19.1464 19.1759 18.9984 19.1759Z" fill="#FEFEFE"/>
<path fill-rule="evenodd" clip-rule="evenodd" d="M3.02814 18.6377H10.0729V18.0847H3.84418C3.69717 18.0847 3.57806 17.9647 3.57806 17.8157V3.63948C3.57806 3.49043 3.69717 3.37044 3.84418 3.37044H10.0729V2.81738H3.02814V18.6377ZM10.3382 19.1759H2.76119C2.61324 19.1759 2.49414 19.0559 2.49414 18.9078V2.54934C2.49414 2.40124 2.61324 2.28125 2.76119 2.28125H10.3382C10.4862 2.28125 10.6053 2.40124 10.6053 2.54934V3.64047C10.6053 3.78858 10.4862 3.90856 10.3382 3.90856H4.11042V17.5485H10.3382C10.4862 17.5485 10.6053 17.6685 10.6053 17.8166V18.9078C10.6053 19.0559 10.4862 19.1759 10.3382 19.1759Z" fill="#FEFEFE"/>
<path fill-rule="evenodd" clip-rule="evenodd" d="M1.67814 16.0684C1.53112 16.0684 1.41109 15.9484 1.41109 15.8003V5.6577C1.41109 5.50866 1.53112 5.38867 1.67814 5.38867C1.82609 5.38867 1.94519 5.50866 1.94519 5.6577V15.8003C1.94519 15.9484 1.82609 16.0684 1.67814 16.0684Z" fill="#FEFEFE"/>
<mask id="mask0" mask-type="alpha" maskUnits="userSpaceOnUse" x="0" y="8" width="2" height="5">
<path fill-rule="evenodd" clip-rule="evenodd" d="M0.329753 8.75H1.06168V12.7067H0.329753V8.75Z" fill="white"/>
</mask>
<g mask="url(#mask0)">
<path fill-rule="evenodd" clip-rule="evenodd" d="M0.596109 12.7067C0.44816 12.7067 0.329056 12.5867 0.329056 12.4377V9.01809C0.329056 8.86999 0.44816 8.75 0.596109 8.75C0.743128 8.75 0.863162 8.86999 0.863162 9.01809V12.4377C0.863162 12.5867 0.743128 12.7067 0.596109 12.7067Z" fill="#FEFEFE"/>
</g>
<path fill-rule="evenodd" clip-rule="evenodd" d="M15.9142 1.72749H5.8462C5.69825 1.72749 5.58008 1.60751 5.58008 1.45846C5.58008 1.31035 5.69825 1.19037 5.8462 1.19037H15.9142C16.0622 1.19037 16.1813 1.31035 16.1813 1.45846C16.1813 1.60751 16.0622 1.72749 15.9142 1.72749Z" fill="#FEFEFE"/>
<mask id="mask1" mask-type="alpha" maskUnits="userSpaceOnUse" x="8" y="0" width="5" height="1">
<path fill-rule="evenodd" clip-rule="evenodd" d="M8.91602 0.100067H12.8446V0.837325H8.91602V0.100067Z" fill="white"/>
</mask>
<g mask="url(#mask1)">
<path fill-rule="evenodd" clip-rule="evenodd" d="M12.5775 0.637649H9.18307C9.03605 0.637649 8.91602 0.517663 8.91602 0.368618C8.91602 0.22051 9.03605 0.100524 9.18307 0.100524H12.5775C12.7245 0.100524 12.8446 0.22051 12.8446 0.368618C12.8446 0.517663 12.7245 0.637649 12.5775 0.637649Z" fill="#FEFEFE"/>
</g>
<path fill-rule="evenodd" clip-rule="evenodd" d="M15.9142 20.2666H5.8462C5.69825 20.2666 5.58008 20.1466 5.58008 19.9975C5.58008 19.8494 5.69825 19.7294 5.8462 19.7294H15.9142C16.0622 19.7294 16.1813 19.8494 16.1813 19.9975C16.1813 20.1466 16.0622 20.2666 15.9142 20.2666Z" fill="#FEFEFE"/>
<mask id="mask2" mask-type="alpha" maskUnits="userSpaceOnUse" x="8" y="20" width="5" height="2">
<path fill-rule="evenodd" clip-rule="evenodd" d="M8.91602 20.6196H12.8446V21.3569H8.91602V20.6196Z" fill="white"/>
</mask>
<g mask="url(#mask2)">
<path fill-rule="evenodd" clip-rule="evenodd" d="M12.5775 21.3584H9.18307C9.03605 21.3584 8.91602 21.2384 8.91602 21.0893C8.91602 20.9412 9.03605 20.8212 9.18307 20.8212H12.5775C12.7245 20.8212 12.8446 20.9412 12.8446 21.0893C12.8446 21.2384 12.7245 21.3584 12.5775 21.3584Z" fill="#FEFEFE"/>
</g>
<path fill-rule="evenodd" clip-rule="evenodd" d="M20.0824 16.0684C19.9354 16.0684 19.8154 15.9484 19.8154 15.8003V5.6577C19.8154 5.50866 19.9354 5.38867 20.0824 5.38867C20.2295 5.38867 20.3495 5.50866 20.3495 5.6577V15.8003C20.3495 15.9484 20.2295 16.0684 20.0824 16.0684Z" fill="#FEFEFE"/>
<path fill-rule="evenodd" clip-rule="evenodd" d="M21.163 12.7067C21.015 12.7067 20.8959 12.5867 20.8959 12.4377V9.01809C20.8959 8.86999 21.015 8.75 21.163 8.75C21.31 8.75 21.4291 8.86999 21.4291 9.01809V12.4377C21.4291 12.5867 21.31 12.7067 21.163 12.7067Z" fill="#FEFEFE"/>
</svg>
