<svg width="64" height="22" viewBox="0 0 64 22" fill="none" xmlns="http://www.w3.org/2000/svg">
<g clip-path="url(#clip0)">
<path d="M4.58767 0.882699H3.40778V4.6156H2.37449V0.882699H0.933594V0.30786C0.933594 0.165925 1.05158 0.0488281 1.1946 0.0488281H4.8451V0.623667C4.84868 0.765602 4.73426 0.882699 4.58767 0.882699Z" fill="white"/>
<path d="M12.4328 0.30786V4.6156H11.3995V2.72431H9.44736V4.6156H8.41406V0.0488281H9.18635C9.32937 0.0488281 9.44736 0.165925 9.44736 0.30786V1.89044H11.3995V0.0488281H12.1718C12.3184 0.0488281 12.4328 0.162376 12.4328 0.30786Z" fill="white"/>
<path d="M17.5352 0.83657V1.88689H19.8485V2.6498H17.5352V3.82431H19.7449C19.8879 3.82431 20.0059 3.94141 20.0059 4.08334V4.6156H16.502V0.0488281H20.0059V0.581086C20.0059 0.723022 19.8879 0.840118 19.7449 0.840118H17.5352V0.83657Z" fill="white"/>
<path d="M33.1368 0.0488281V4.6156H32.1429V1.58173L30.8164 3.37012H30.7127L29.3826 1.58173V4.6156H28.3887V0.0488281H29.1931C29.279 0.0488281 29.3576 0.0878602 29.4077 0.158828L30.7628 2.05367L32.1178 0.158828C32.1679 0.0914086 32.2465 0.0488281 32.3324 0.0488281H33.1368Z" fill="white"/>
<path d="M40.2626 3.64334H38.3569L37.9958 4.6156H36.916L38.7574 0.0488281H39.6798C39.7871 0.0488281 39.8836 0.112699 39.9229 0.212054L41.7035 4.61915H40.6237L40.2626 3.64334ZM39.9802 2.87334L39.308 1.07076L38.6358 2.87334H39.9802Z" fill="white"/>
<path d="M47.7011 3.06851C47.7011 3.28141 47.6832 3.48721 47.6439 3.68947C47.6081 3.88818 47.5366 4.0656 47.4294 4.22173C47.3257 4.37786 47.1755 4.49851 46.9789 4.59431C46.7822 4.68657 46.5284 4.73625 46.2137 4.73625C45.8455 4.73625 45.5344 4.64754 45.2805 4.47367C45.0946 4.34592 44.9588 4.16851 44.8694 3.94141C44.8122 3.79592 44.898 3.6327 45.0517 3.59367L45.7275 3.43044C45.7418 3.54399 45.7918 3.6398 45.8812 3.71786C45.9706 3.79592 46.0743 3.83496 46.1887 3.83496C46.3067 3.83496 46.3997 3.80657 46.464 3.74625C46.5284 3.68592 46.5784 3.61496 46.607 3.52625C46.6392 3.43754 46.6571 3.34528 46.6642 3.24238C46.6714 3.13947 46.675 3.04721 46.675 2.95851V0.0488281H47.4401C47.5831 0.0488281 47.7011 0.165925 47.7011 0.30786V3.06851Z" fill="white"/>
<path d="M2.65775 15.1795C2.61485 15.4563 2.60055 15.6869 2.60055 15.9176C2.60055 16.8153 2.87943 17.6953 3.89842 17.6953C4.65641 17.6953 5.47161 17.2198 5.70401 16.9431C5.78982 16.9857 5.86491 17.046 5.93642 17.1311C5.31072 18.0289 4.18804 18.6498 3.16904 18.6498C1.90334 18.6498 1.25977 17.7095 1.25977 16.3221C1.25977 13.9518 3.19764 11.3047 5.23563 11.3047C6.35831 11.3047 6.79452 12.0853 6.79452 12.7347C6.79094 14.1115 4.81016 14.9063 2.65775 15.1795ZM2.71496 14.7608C4.47764 14.4131 5.51094 13.8063 5.51094 12.8802C5.51094 12.5324 5.35005 12.0108 4.72435 12.0108C3.67675 12.0144 2.99027 13.4444 2.71496 14.7608Z" fill="white"/>
<path d="M11.6567 13.2842C12.5899 12.0848 13.0833 11.3184 13.7841 11.3184C14.1345 11.3184 14.324 11.6661 14.324 11.9677C14.324 12.1984 14.281 12.72 13.7841 12.72C13.4623 12.72 12.6614 12.7342 11.7604 13.9051L11.2956 14.5261L11.6603 15.6545C12.1251 17.0845 12.4183 17.8509 13.684 17.968V18.4896H11.3099L10.4089 15.6864L9.62228 16.7119C8.64619 17.8829 8.1492 18.6635 7.452 18.6635C7.1016 18.6635 6.91211 18.3158 6.91211 18.0142C6.91211 17.7835 6.94071 17.2619 7.452 17.2619C7.75948 17.2619 8.57468 17.2477 9.47568 16.0767L10.2194 15.1222L9.94406 14.2529C9.47926 12.8229 9.27546 12.0422 7.92037 12.0848V11.5667L10.2945 11.4213L11.124 13.9796L11.6567 13.2842Z" fill="white"/>
<path d="M16.2473 18.5469C16.0721 19.4731 15.9541 20.0657 15.9541 20.4702C15.9541 21.2224 16.3188 21.2792 17.3378 21.3218L17.2341 21.8434L16.4332 21.815C15.9684 21.8008 15.3713 21.7866 14.8458 21.7866C14.3953 21.7866 14.0306 21.8008 13.7553 21.815C13.5944 21.8292 13.4621 21.8292 13.3477 21.8292L13.4513 21.3395C14.5418 21.2224 14.6455 20.8179 15.3463 17.1915L15.6967 15.3995C15.9291 14.1434 16.0757 13.3911 16.0757 12.8837C16.0757 12.1882 15.7861 12.0889 15.071 12.0889L15.189 11.5673L17.606 11.4218L16.8766 14.9915C17.6918 13.0257 18.7394 11.3047 20.2125 11.3047C21.3208 11.3047 21.8142 12.3018 21.8142 13.5011C21.8142 15.6692 20.2554 18.6463 17.6346 18.6463C17.2949 18.6498 16.8158 18.6073 16.2473 18.5469ZM16.4368 17.564C16.9016 17.8976 17.3557 17.9686 17.6882 17.9686C19.6118 17.9686 20.4985 15.6976 20.4985 14.0937C20.4985 13.1108 20.1803 12.3444 19.551 12.3444C18.3604 12.3479 16.9767 15.2079 16.4368 17.564Z" fill="white"/>
<path d="M24.0699 15.1795C24.027 15.4563 24.0127 15.6869 24.0127 15.9176C24.0127 16.8153 24.2915 17.6953 25.3105 17.6953C26.0685 17.6953 26.8837 17.2198 27.1161 16.9431C27.2019 16.9857 27.277 17.046 27.3485 17.1311C26.7228 18.0289 25.6001 18.6498 24.5811 18.6498C23.3154 18.6498 22.6719 17.7095 22.6719 16.3221C22.6719 13.9518 24.6098 11.3047 26.6477 11.3047C27.7704 11.3047 28.2066 12.0853 28.2066 12.7347C28.2066 14.1115 26.2258 14.9063 24.0699 15.1795ZM24.1271 14.7608C25.8898 14.4131 26.9231 13.8063 26.9231 12.8802C26.9231 12.5324 26.7622 12.0108 26.1365 12.0108C25.0889 12.0144 24.406 13.4444 24.1271 14.7608Z" fill="white"/>
<path d="M33.4059 11.3047C34.003 11.3047 34.2211 11.5779 34.2211 12.0286C34.2211 12.536 33.9458 12.795 33.5204 12.795C33.1557 12.795 32.9662 12.6069 32.7338 12.6069C31.6719 12.6069 30.5778 16.5811 30.2274 18.4902H29.0475L29.6589 15.396C29.9056 14.1398 30.0522 13.4018 30.0522 12.8944C30.0522 12.1989 29.7447 12.0853 29.0332 12.0853L29.1512 11.5637L31.5968 11.4182L30.9425 14.626C31.704 12.4757 32.4012 11.3047 33.4059 11.3047Z" fill="white"/>
<path d="M35.6374 12.8841C35.6374 12.1886 35.33 12.0892 34.6184 12.0892L34.7364 11.5676L37.182 11.4221L36.542 14.5163C36.2631 15.847 36.1058 16.6702 36.1058 17.1776C36.1058 17.8554 36.3811 17.9725 37.0676 17.9725L36.9496 18.4941H34.5898L35.2298 15.3999C35.5052 14.1402 35.6374 13.388 35.6374 12.8841ZM37.0783 7.88086C37.4716 7.88086 37.7469 8.21441 37.7469 8.6757C37.7469 9.19731 37.3822 9.64441 36.9317 9.64441C36.5384 9.64441 36.2774 9.33925 36.2774 8.86376C36.2774 8.44505 36.5849 7.88086 37.0783 7.88086Z" fill="white"/>
<path d="M39.6265 15.1795C39.5836 15.4563 39.5693 15.6869 39.5693 15.9176C39.5693 16.8153 39.8482 17.6953 40.8672 17.6953C41.6252 17.6953 42.4404 17.2198 42.6728 16.9431C42.7586 16.9857 42.8337 17.046 42.9052 17.1311C42.2795 18.0289 41.1568 18.6498 40.1378 18.6498C38.8721 18.6498 38.2285 17.7095 38.2285 16.3221C38.2285 13.9518 40.1664 11.3047 42.2044 11.3047C43.3271 11.3047 43.7633 12.0853 43.7633 12.7347C43.7633 14.1115 41.7825 14.9063 39.6265 15.1795ZM39.6873 14.7608C41.45 14.4131 42.4833 13.8063 42.4833 12.8802C42.4833 12.5324 42.3224 12.0108 41.6967 12.0108C40.6491 12.0144 39.9626 13.4444 39.6873 14.7608Z" fill="white"/>
<path d="M49.9289 11.3047C50.8299 11.3047 51.2089 11.9682 51.2089 12.7063C51.2089 12.866 51.1946 13.0257 51.1517 13.1818L50.8621 14.5124C50.5689 15.8289 50.4116 16.6237 50.4116 17.1418C50.4116 17.8195 50.7012 17.965 51.3877 17.965L51.2697 18.4866H48.8241L49.4355 15.5521L49.9611 13.2102C50.0326 12.8624 49.9754 12.3586 49.4069 12.3586C47.9052 12.3586 46.2033 15.8857 45.7958 18.4866H44.6159L45.2273 15.3924C45.474 14.1363 45.6206 13.3982 45.6206 12.8908C45.6206 12.1953 45.3166 12.0818 44.6016 12.0818L44.7196 11.5602L47.1651 11.4147L46.4215 14.9418C47.5263 12.536 48.7061 11.3047 49.9289 11.3047Z" fill="white"/>
<path d="M53.848 15.9027C53.848 16.9282 54.1411 17.6946 55.1458 17.6946C55.961 17.6946 56.7476 17.2192 56.98 16.9424C57.0658 16.9708 57.1409 17.0276 57.2124 17.1305C56.5867 18.0282 55.464 18.6492 54.445 18.6492C53.2223 18.6492 52.5215 17.7834 52.5215 16.2788C52.5215 14.1676 53.9481 11.3359 56.5546 11.3359C57.6165 11.3359 58.1563 11.8575 58.1563 12.333C58.1563 12.6346 57.9525 12.9966 57.4734 12.9966C56.7154 12.9966 56.9192 12.0421 55.9896 12.0421C54.5309 12.0421 53.848 14.3414 53.848 15.9027Z" fill="white"/>
<path d="M59.9781 15.1795C59.9352 15.4563 59.9209 15.6869 59.9209 15.9176C59.9209 16.8153 60.1997 17.6953 61.2187 17.6953C61.9767 17.6953 62.7919 17.2198 63.0243 16.9431C63.1101 16.9857 63.1852 17.046 63.2567 17.1311C62.631 18.0289 61.5083 18.6498 60.4893 18.6498C59.2237 18.6498 58.5801 17.7095 58.5801 16.3221C58.5801 13.9518 60.518 11.3047 62.5559 11.3047C63.6786 11.3047 64.1148 12.0853 64.1148 12.7347C64.1148 14.1115 62.134 14.9063 59.9781 15.1795ZM60.0389 14.7608C61.8015 14.4131 62.8348 13.8063 62.8348 12.8802C62.8348 12.5324 62.6739 12.0108 62.0482 12.0108C60.9971 12.0144 60.3142 13.4444 60.0389 14.7608Z" fill="white"/>
</g>
<defs>
<clipPath id="clip0">
<rect width="64" height="22" fill="white"/>
</clipPath>
</defs>
</svg>
