<svg width="12" height="12" viewBox="0 0 12 12" fill="none" xmlns="http://www.w3.org/2000/svg">
<path d="M10.8671 0H1.50816C0.99108 0 0.572266 0.418814 0.572266 0.935897V10.2949C0.572266 10.812 0.99108 11.2308 1.50816 11.2308H6.6556V7.01923H5.25175V5.14744H6.6556V3.93685C6.6556 2.48621 7.54143 1.69631 8.83577 1.69631C9.4558 1.69631 9.98833 1.74264 10.1437 1.76323V3.27938L9.24616 3.27985C8.54237 3.27985 8.4062 3.61444 8.4062 4.10485V5.14744H10.4839L10.0159 7.01923H8.4062V11.2308H10.8671C11.3842 11.2308 11.803 10.812 11.803 10.2949V0.935897C11.803 0.418814 11.3842 0 10.8671 0Z" fill="white"/>
</svg>
