<svg width="12" height="11" viewBox="0 0 12 11" fill="none" xmlns="http://www.w3.org/2000/svg">
<path fill-rule="evenodd" clip-rule="evenodd" d="M11.9992 2.10552C11.5547 2.32779 11.1101 2.40189 10.5915 2.47598C11.1101 2.17961 11.4806 1.73506 11.6288 1.14232C11.1842 1.43869 10.6656 1.58688 10.0728 1.73506C9.62829 1.29051 8.96146 0.994141 8.29464 0.994141C7.03508 0.994141 5.9237 2.10552 5.9237 3.43917C5.9237 3.66145 5.9237 3.80963 5.99779 3.95782C3.99731 3.88372 2.14501 2.92053 0.959542 1.43869C0.737266 1.80915 0.663174 2.17961 0.663174 2.69825C0.663174 3.51326 1.10773 4.25418 1.77455 4.69873C1.40409 4.69873 1.03363 4.55055 0.663174 4.40237C0.663174 5.58784 1.47819 6.55103 2.58956 6.77331C2.36729 6.8474 2.14501 6.8474 1.92274 6.8474C1.77455 6.8474 1.62637 6.8474 1.47819 6.77331C1.77455 7.7365 2.66366 8.47742 3.77503 8.47742C2.96002 9.14425 1.92274 9.51471 0.737266 9.51471C0.514991 9.51471 0.366807 9.51471 0.144531 9.51471C1.25591 10.1815 2.51547 10.6261 3.84913 10.6261C8.29464 10.6261 10.7397 6.92149 10.7397 3.73554C10.7397 3.66145 10.7397 3.51326 10.7397 3.43917C11.2583 3.06871 11.7029 2.62416 11.9992 2.10552Z" fill="white"/>
</svg>
