<svg width="177" height="31" viewBox="0 0 177 31" fill="none" xmlns="http://www.w3.org/2000/svg">
<path d="M14.4446 19.3389C14.1128 18.7683 13.7089 18.2446 13.24 17.7752C12.7712 17.3057 12.2446 16.9012 11.6783 16.5654C11.1085 16.2295 10.4881 15.9659 9.82812 15.7817C9.16811 15.5975 8.47924 15.5 7.77594 15.5C7.05822 15.5 6.35853 15.5939 5.6949 15.7817C5.03488 15.9659 4.41093 16.2295 3.84108 16.5654C3.27123 16.9012 2.74466 17.3057 2.2794 17.7752C1.81054 18.2446 1.40299 18.7683 1.06757 19.3389C0.73215 19.9095 0.468865 20.5343 0.281319 21.1987C0.0937729 21.8632 0 22.5638 0 23.2717C0 23.9903 0.0937729 24.6873 0.281319 25.3482C0.465258 26.0055 0.73215 26.6266 1.06757 27.1972C1.40299 27.7678 1.81054 28.2915 2.2794 28.7537C2.74827 29.216 3.27484 29.6205 3.84469 29.9527C4.41454 30.285 5.03849 30.545 5.69851 30.7255C6.35853 30.9061 7.06182 31 7.77955 31C8.48284 31 9.17171 30.9061 9.83173 30.7255C10.4881 30.545 11.1121 30.285 11.6819 29.9527C12.2518 29.6205 12.7784 29.2196 13.2436 28.7537C13.7125 28.2879 14.1164 27.7642 14.4482 27.1936C14.7801 26.623 15.0397 26.0019 15.2273 25.3446C15.4148 24.6873 15.5086 23.9867 15.5086 23.2681C15.5086 22.5566 15.4148 21.8596 15.2273 21.1951C15.0361 20.5342 14.7764 19.9095 14.4446 19.3389ZM13.5718 23.2681C13.5718 24.0553 13.4167 24.8101 13.1102 25.5071C12.8 26.2077 12.3816 26.8289 11.8587 27.3489C11.3357 27.8726 10.7154 28.2915 10.0121 28.5948C9.31237 28.8982 8.55498 29.0535 7.76873 29.0535C6.96444 29.0535 6.19983 28.8982 5.50014 28.5948C4.79685 28.2915 4.1765 27.8689 3.65354 27.3489C3.13057 26.8253 2.70859 26.2077 2.40203 25.5071C2.09546 24.8101 1.94038 24.0589 1.94038 23.2681C1.94038 22.4699 2.09546 21.7116 2.40203 21.0037C2.7122 20.2959 3.13418 19.6675 3.65714 19.1367C4.18011 18.6058 4.80045 18.1832 5.50375 17.8727C6.20344 17.5657 6.96805 17.4104 7.77233 17.4104C8.56219 17.4104 9.31598 17.5657 10.0157 17.8727C10.719 18.1832 11.3393 18.6058 11.8623 19.1367C12.3852 19.6675 12.8072 20.2959 13.1174 21.0037C13.4167 21.7116 13.5718 22.4699 13.5718 23.2681Z" fill="white"/>
<path d="M42.4747 15.9367C42.417 16.157 42.3557 16.3376 42.2944 16.4712C42.2331 16.6048 42.1754 16.7132 42.1177 16.7962C42.0672 16.8721 42.0167 16.9298 41.9626 16.9732C41.9409 16.9912 41.9193 17.0093 41.8976 17.0274C41.5694 16.8396 41.234 16.6807 40.8986 16.5543C40.5127 16.4134 40.1268 16.3051 39.7517 16.2365C39.3766 16.1679 39.0015 16.1281 38.6372 16.1137C38.2766 16.1028 37.9303 16.1065 37.5985 16.1317C36.9385 16.2112 36.2929 16.3773 35.687 16.6193C35.0811 16.8612 34.5112 17.179 33.9955 17.5582C33.4761 17.941 33.0109 18.3925 32.6069 18.9053C32.203 19.4181 31.8675 19.9815 31.6079 20.5809L31.5898 20.6279V20.6459C31.5826 20.6712 31.561 20.7254 31.5141 20.8482C31.4456 21.0143 31.3807 21.231 31.3049 21.5127C31.2328 21.7871 31.1643 22.0977 31.0993 22.4372C31.0344 22.7875 31.002 23.1631 31.002 23.5567C31.002 24.2357 31.0885 24.9001 31.2652 25.5249C31.4384 26.1497 31.6872 26.7456 32.001 27.2909C32.3148 27.8362 32.7007 28.3418 33.1443 28.7896C33.5879 29.2374 34.0929 29.6274 34.6375 29.9488C35.1821 30.2666 35.7736 30.523 36.3939 30.7036C37.0178 30.8842 37.6779 30.9817 38.3595 30.9889C39.272 30.9889 40.1592 30.83 40.996 30.5122C41.8291 30.198 42.6045 29.743 43.297 29.1616L43.3836 29.0893V26.7672L42.9941 27.0778C42.8137 27.2223 42.5793 27.3884 42.298 27.5726C42.0131 27.7603 41.7173 27.9445 41.418 28.1215C41.1186 28.2984 40.8156 28.461 40.5127 28.609C40.2206 28.7499 39.9573 28.8474 39.73 28.8979C39.2287 29.0171 38.7274 29.0604 38.2369 29.0279C37.7428 28.9954 37.2523 28.8979 36.7834 28.739C36.3145 28.5801 35.8745 28.3598 35.467 28.0745C35.0594 27.7892 34.6879 27.4498 34.3634 27.067C33.9594 26.5939 33.642 26.0522 33.422 25.4491C33.202 24.846 33.0902 24.2104 33.0902 23.5567C33.0902 22.8055 33.2273 22.0941 33.4978 21.4368C33.7683 20.7796 34.1506 20.1873 34.6411 19.6745C35.1099 19.1581 35.6762 18.7536 36.3218 18.4719C36.9674 18.1866 37.6743 18.0458 38.4208 18.0458C38.832 18.0458 39.2431 18.0999 39.6435 18.2047C40.051 18.3094 40.4478 18.4575 40.8229 18.6416C41.2016 18.8258 41.5622 19.0533 41.894 19.3134C42.2295 19.5734 42.5288 19.8551 42.7813 20.1584L42.8534 20.2451H43.3836V15.7598H42.5216L42.4747 15.9367Z" fill="white"/>
<path d="M58.9139 16.63L59.0943 16.6733C59.4044 16.7456 59.6569 16.8395 59.8372 16.9478C60.0248 17.0597 60.1654 17.1645 60.27 17.2692C60.4071 17.392 60.5008 17.5184 60.5477 17.6484C60.6018 17.7929 60.6451 18.0059 60.674 18.284V31.0069H70.2641V29.1687H62.8199V24.2175H69.4526V22.3649H62.8199V17.6917H70.2641V15.7344H58.8887L58.9139 16.63Z" fill="white"/>
<path d="M93.6675 15.7246H90.3097V16.6925L90.5297 16.7141C90.5982 16.7213 90.6704 16.7358 90.7461 16.7611C90.8146 16.7827 90.894 16.8116 90.9842 16.8514C91.0671 16.8839 91.1501 16.9272 91.2294 16.9814L91.2547 16.9958C91.536 17.1367 91.5684 17.2847 91.5684 17.3822C91.5684 17.4075 91.5648 17.4581 91.5504 17.5339C91.536 17.6061 91.5179 17.6856 91.4963 17.7759L85.7617 30.9971H87.9726L89.9995 26.3745H96.0804L98.1073 30.9971H100.307L93.7288 15.8655L93.6675 15.7246ZM95.2617 24.5255H90.8146L93.0363 19.4696L95.2617 24.5255Z" fill="white"/>
<path d="M127.935 26.7343L119.153 15.8172L115.816 15.8027V16.8211L116.047 16.832C116.386 16.8464 116.653 16.9078 116.848 17.0162C117.05 17.1281 117.201 17.2401 117.295 17.3448C117.4 17.4748 117.475 17.6193 117.522 17.7709V30.9994H119.311V19.8222L128.036 30.8585L128.108 30.9488H129.691V15.8172H127.935V26.7343Z" fill="white"/>
<path d="M145.193 16.8403L145.377 16.8836C145.589 16.9342 145.77 16.9919 145.907 17.0533C146.051 17.1147 146.167 17.1761 146.26 17.2339C146.343 17.2845 146.408 17.3386 146.459 17.3964C146.524 17.4723 146.585 17.5373 146.632 17.5914C146.704 17.6817 146.769 17.8117 146.83 17.9706C146.891 18.1259 146.92 18.357 146.92 18.6568V31.0004H149.11V15.9844H145.186V16.8403H145.193Z" fill="white"/>
<path d="M168.254 19.6781C168.723 19.1617 169.289 18.7572 169.935 18.4755C170.581 18.1902 171.288 18.0494 172.034 18.0494C172.445 18.0494 172.856 18.1035 173.257 18.2083C173.664 18.313 174.061 18.4611 174.436 18.6453C174.811 18.8294 175.172 19.0569 175.507 19.317C175.843 19.577 176.142 19.8587 176.395 20.162L176.467 20.2487H176.997V15.7598H176.135L176.088 15.9403C176.03 16.1606 175.969 16.3412 175.908 16.4748C175.846 16.6084 175.789 16.7168 175.731 16.7998C175.68 16.8757 175.63 16.9335 175.576 16.9768C175.554 16.9949 175.533 17.0129 175.511 17.031C175.183 16.8432 174.847 16.6843 174.512 16.5579C174.126 16.417 173.74 16.3087 173.365 16.2401C172.99 16.1715 172.615 16.1317 172.251 16.1173C171.89 16.1065 171.544 16.1101 171.212 16.1353C170.552 16.2148 169.906 16.3809 169.3 16.6229C168.694 16.8648 168.124 17.1826 167.609 17.5618C167.089 17.9446 166.624 18.3961 166.22 18.9089C165.816 19.4217 165.481 19.9851 165.221 20.5846L165.203 20.6315V20.6496C165.196 20.6748 165.174 20.729 165.127 20.8518C165.059 21.0179 164.99 21.2346 164.918 21.5163C164.846 21.7871 164.778 22.0977 164.713 22.4408C164.648 22.7911 164.615 23.1667 164.615 23.5603C164.615 24.2393 164.702 24.9038 164.879 25.5285C165.052 26.1533 165.3 26.7492 165.614 27.2945C165.928 27.8398 166.314 28.3454 166.758 28.7932C167.201 29.2446 167.706 29.631 168.251 29.9525C168.795 30.2703 169.387 30.5267 170.007 30.7072C170.631 30.8878 171.291 30.9853 171.973 30.9925C172.885 30.9925 173.773 30.8336 174.609 30.5158C175.442 30.2016 176.218 29.7466 176.91 29.1652L176.997 29.0929V26.7708L176.607 27.0814C176.427 27.2259 176.193 27.392 175.911 27.5762C175.63 27.7603 175.334 27.9481 175.031 28.1251C174.732 28.3021 174.429 28.4646 174.126 28.6126C173.834 28.7535 173.571 28.851 173.343 28.9015C172.842 29.0207 172.341 29.0641 171.85 29.0316C171.356 28.999 170.866 28.9015 170.397 28.7426C169.928 28.5837 169.488 28.3598 169.08 28.0781C168.673 27.7929 168.301 27.4534 167.977 27.0706C167.573 26.5975 167.255 26.0558 167.035 25.4527C166.815 24.8496 166.703 24.214 166.703 23.5603C166.703 22.8092 166.841 22.0977 167.111 21.4405C167.382 20.7868 167.764 20.1945 168.254 19.6781Z" fill="white"/>
<path d="M72.4425 1.04007H70.989V5.68069H69.7159V1.04007H67.9414V0.321412C67.9414 0.144455 68.0857 0 68.2624 0H72.7635V0.715051C72.7671 0.89562 72.6228 1.04007 72.4425 1.04007Z" fill="white"/>
<path d="M79.4168 0.321412V5.67707H78.1436V3.32607H75.738V5.68069H74.4648V0H75.417C75.5937 0 75.738 0.144455 75.738 0.321412V2.286H78.1436V0H79.0958C79.2725 0 79.4168 0.144455 79.4168 0.321412Z" fill="white"/>
<path d="M82.9274 0.982293V2.28961H85.7803V3.2394H82.9274V4.69839H85.6541C85.8308 4.69839 85.9751 4.84285 85.9751 5.0198V5.68069H81.6543V0H85.9715V0.660881C85.9715 0.837838 85.8272 0.982293 85.6505 0.982293H82.9274Z" fill="white"/>
<path d="M96.4555 0V5.68069H95.2328V1.9068L93.5954 4.13141H93.4655L91.8281 1.9068V5.68069H90.6055V0H91.5973C91.7019 0 91.7993 0.0505592 91.8606 0.137232L93.5305 2.49185L95.2003 0.137232C95.2617 0.0505592 95.359 0 95.4636 0H96.4555Z" fill="white"/>
<path d="M102.356 4.47088H100.005L99.5577 5.68069H98.2305L100.499 0H101.635C101.765 0 101.884 0.0794501 101.935 0.202237L104.131 5.68069H102.804L102.356 4.47088ZM102.007 3.51386L101.181 1.27481L100.355 3.51386H102.007Z" fill="white"/>
<path d="M109.053 3.75582C109.053 4.01945 109.031 4.27947 108.985 4.52505C108.938 4.77423 108.851 4.99452 108.721 5.18593C108.591 5.37733 108.408 5.53262 108.166 5.64818C107.924 5.76375 107.61 5.82153 107.221 5.82153C106.767 5.82153 106.384 5.71319 106.07 5.49651C105.843 5.34122 105.674 5.11731 105.565 4.83562C105.493 4.65506 105.602 4.44921 105.789 4.40587L106.622 4.20002C106.64 4.34087 106.702 4.46004 106.813 4.55755C106.925 4.65506 107.048 4.702 107.188 4.702C107.333 4.702 107.448 4.66589 107.528 4.59366C107.607 4.52144 107.668 4.43115 107.704 4.32281C107.744 4.21447 107.766 4.09529 107.773 3.9689C107.78 3.8425 107.784 3.72332 107.784 3.61498V0H108.725C108.902 0 109.046 0.144455 109.046 0.321412V3.75582H109.053Z" fill="white"/>
</svg>
