<svg width="12" height="12" viewBox="0 0 12 12" fill="none" xmlns="http://www.w3.org/2000/svg">
<path fill-rule="evenodd" clip-rule="evenodd" d="M3.29997 0.0336914C3.89895 0.00654602 4.09034 0 5.61539 0C7.14043 0 7.33182 0.00654602 7.9308 0.0336914C8.8433 0.0753326 9.64489 0.299026 10.2883 0.942444C10.9318 1.58588 11.1554 2.38748 11.1971 3.29997C11.2242 3.89896 11.2308 4.09035 11.2308 5.61539C11.2308 7.14043 11.2242 7.33182 11.1971 7.9308C11.1554 8.84329 10.9318 9.6449 10.2883 10.2883C9.64489 10.9317 8.8433 11.1554 7.9308 11.1971C7.33182 11.2242 7.14043 11.2308 5.61539 11.2308C4.09034 11.2308 3.89895 11.2242 3.29997 11.1971C2.38747 11.1554 1.58588 10.9317 0.942449 10.2883C0.299019 9.6449 0.0753397 8.84329 0.0336923 7.9308C0.00655128 7.33182 0 7.14043 0 5.61539C0 4.09035 0.00655128 3.89896 0.0336923 3.29997C0.0753397 2.38748 0.299019 1.58588 0.942449 0.942444C1.58588 0.299026 2.38747 0.0753326 3.29997 0.0336914ZM7.88421 1.04399C7.29225 1.01685 7.11443 1.01123 5.61512 1.01123C4.11582 1.01123 3.938 1.01685 3.34604 1.04399C2.70682 1.073 2.11393 1.20122 1.65768 1.65747C1.20143 2.11372 1.07321 2.7066 1.0442 3.34583C1.01706 3.93777 1.01144 4.1156 1.01144 5.61491C1.01144 7.11421 1.01706 7.29204 1.0442 7.88399C1.07321 8.52321 1.20143 9.1161 1.65768 9.57236C2.11393 10.0286 2.70682 10.1568 3.34604 10.1858C3.938 10.213 4.11582 10.2186 5.61512 10.2186C7.11443 10.2186 7.29225 10.213 7.88421 10.1858C8.52343 10.1568 9.11632 10.0286 9.57257 9.57236C10.0288 9.1161 10.157 8.52321 10.186 7.88399C10.2132 7.29204 10.2188 7.11421 10.2188 5.61491C10.2188 4.1156 10.2132 3.93777 10.186 3.34583C10.157 2.7066 10.0288 2.11372 9.57257 1.65747C9.11632 1.20122 8.52343 1.073 7.88421 1.04399ZM2.73212 5.61543C2.73212 4.02301 4.02319 2.73193 5.61562 2.73193C7.20805 2.73193 8.49912 4.02301 8.49912 5.61543C8.49912 7.20787 7.20805 8.49893 5.61562 8.49893C4.02319 8.49893 2.73212 7.20787 2.73212 5.61543ZM3.74329 5.61496C3.74329 6.64865 4.58138 7.48676 5.61508 7.48676C6.64878 7.48676 7.48688 6.64865 7.48688 5.61496C7.48688 4.58125 6.64878 3.74316 5.61508 3.74316C4.58138 3.74316 3.74329 4.58125 3.74329 5.61496ZM9.28696 2.61769C9.28696 2.98985 8.98527 3.29153 8.61312 3.29153C8.24096 3.29153 7.93927 2.98985 7.93927 2.61769C7.93927 2.24554 8.24096 1.94385 8.61312 1.94385C8.98527 1.94385 9.28696 2.24554 9.28696 2.61769Z" fill="white"/>
</svg>
