<svg width="1440" height="700" viewBox="0 0 1440 700" fill="none" xmlns="http://www.w3.org/2000/svg">
<rect width="1440" height="700" fill="white"/>
<rect x="46" y="60" width="123" height="53" rx="4" fill="#C4C4C4"/>
<rect x="152" y="256" width="123" height="53" rx="4" fill="#C4C4C4"/>
<rect x="319" y="256" width="123" height="53" rx="4" fill="#C4C4C4"/>
<rect x="486" y="256" width="123" height="53" rx="4" fill="#C4C4C4"/>
<rect x="653" y="256" width="123" height="53" rx="4" fill="#C4C4C4"/>
<rect x="820" y="256" width="123" height="53" rx="4" fill="#C4C4C4"/>
<rect x="987" y="256" width="123" height="53" rx="4" fill="#C4C4C4"/>
<rect x="1154" y="256" width="123" height="53" rx="4" fill="#C4C4C4"/>
<rect x="184" y="60" width="123" height="53" rx="4" fill="#C4C4C4"/>
<rect x="1131" y="60" width="123" height="53" rx="4" fill="#C4C4C4"/>
<rect x="1269" y="60" width="126" height="53" rx="4" fill="#C4C4C4"/>
<rect x="544" y="45" width="350" height="90" rx="8" fill="#C4C4C4"/>
<rect x="259" y="452" width="924" height="90" rx="8" fill="#C4C4C4"/>
</svg>
