<svg width="191" height="34" viewBox="0 0 191 34" fill="none" xmlns="http://www.w3.org/2000/svg">
<mask id="mask0" mask-type="alpha" maskUnits="userSpaceOnUse" x="0" y="16" width="17" height="18">
<path fill-rule="evenodd" clip-rule="evenodd" d="M0 16.793H16.6531V33.5476H0V16.793Z" fill="white"/>
</mask>
<g mask="url(#mask0)">
<path fill-rule="evenodd" clip-rule="evenodd" d="M14.5781 25.1896C14.5781 26.0413 14.4107 26.8552 14.0807 27.609C13.749 28.3663 13.2963 29.0367 12.7349 29.6017C12.1738 30.1665 11.5062 30.62 10.7505 30.9494C9.99767 31.2778 9.18616 31.4444 8.33896 31.4444C7.47498 31.4444 6.65509 31.2778 5.9023 30.9492C5.1462 30.62 4.47855 30.1665 3.91751 29.6017C3.35622 29.0366 2.90358 28.3662 2.57192 27.609C2.24203 26.8558 2.07467 26.0418 2.07467 25.1896C2.07467 24.3287 2.24216 23.5057 2.5723 22.7439C2.90422 21.9779 3.35737 21.2987 3.91917 20.7252C4.47944 20.1527 5.14709 19.6932 5.90319 19.3592C6.6561 19.0268 7.47561 18.8583 8.33896 18.8583C9.18566 18.8583 9.99652 19.0268 10.7493 19.3592C11.5053 19.6932 12.1731 20.1527 12.7337 20.7254C13.295 21.2985 13.7482 21.9776 14.0802 22.7439C14.4106 23.5064 14.5781 24.3292 14.5781 25.1896ZM15.5159 20.9428C15.1603 20.3276 14.7248 19.7587 14.2212 19.2518C13.7179 18.746 13.153 18.3059 12.542 17.944C11.9302 17.5817 11.2618 17.2963 10.556 17.0959C9.8478 16.8949 9.10632 16.793 8.35162 16.793C7.58041 16.793 6.82838 16.8949 6.11612 17.0958C5.40552 17.2962 4.73507 17.5816 4.12333 17.9441C3.5121 18.3059 2.94726 18.746 2.44391 19.2521C1.94095 19.7584 1.50356 20.3268 1.14381 20.9416C0.783554 21.557 0.499923 22.234 0.300669 22.9535C0.101035 23.6735 -0.000244141 24.4279 -0.000244141 25.1958C-0.000244141 25.9725 0.101035 26.7273 0.300796 27.439C0.500304 28.1502 0.783935 28.8227 1.14381 29.4375C1.50381 30.053 1.94159 30.6196 2.4448 31.1213C2.94764 31.6227 3.51261 32.0586 4.12435 32.4166C4.73647 32.7748 5.40692 33.0557 6.11752 33.2517C6.82838 33.4482 7.58003 33.5476 8.35162 33.5476C9.10658 33.5476 9.84768 33.4482 10.5543 33.2517C11.2606 33.0556 11.9288 32.7746 12.541 32.4166C13.1524 32.0586 13.7176 31.6227 14.2204 31.1213C14.7239 30.6191 15.1598 30.0523 15.5159 29.4364C15.8715 28.821 16.1529 28.149 16.3519 27.439C16.5516 26.7267 16.6529 25.9719 16.6529 25.1958C16.6529 24.4285 16.5516 23.6741 16.3521 22.9535C16.1533 22.2351 15.8718 21.5587 15.5159 20.9428Z" fill="#FEFEFE"/>
</g>
<path fill-rule="evenodd" clip-rule="evenodd" d="M45.7584 17.5633C45.6954 17.7984 45.6306 17.9891 45.5661 18.1296C45.5014 18.2704 45.4383 18.3872 45.3791 18.476C45.326 18.5554 45.2707 18.6193 45.2154 18.6654C45.1919 18.6849 45.169 18.7037 45.1464 18.7219C44.7972 18.5211 44.4401 18.3531 44.0825 18.2214C43.6735 18.071 43.2626 17.9576 42.8611 17.8843C42.4606 17.8112 42.0618 17.7677 41.6762 17.7551C41.2937 17.7423 40.9255 17.7488 40.5706 17.7756C39.8663 17.8613 39.1821 18.0353 38.5374 18.2928C37.8927 18.5503 37.2872 18.8851 36.7376 19.2882C36.1859 19.6926 35.6884 20.1742 35.2582 20.7195C34.8282 21.2648 34.4708 21.8632 34.196 22.498L34.1748 22.5467V22.5665C34.1658 22.593 34.1441 22.6517 34.0929 22.7798C34.0218 22.957 33.9491 23.1879 33.8698 23.4856C33.7929 23.7759 33.7196 24.1065 33.6525 24.4682C33.5831 24.84 33.5479 25.2391 33.5479 25.6545C33.5479 26.3764 33.6415 27.0798 33.8268 27.7451C34.0114 28.4096 34.2752 29.0405 34.6107 29.6199C34.946 30.1999 35.3562 30.7354 35.8293 31.2123C36.3029 31.6894 36.8376 32.1032 37.4182 32.4423C37.998 32.7812 38.6273 33.0508 39.288 33.2432C39.9507 33.4369 40.6531 33.5393 41.3792 33.5479C42.3505 33.5479 43.2943 33.378 44.1847 33.0432C45.0728 32.7091 45.8975 32.2269 46.6354 31.6102L46.7273 31.5333V29.0683L46.3113 29.3971C46.1176 29.5501 45.8684 29.7268 45.5707 29.9223C45.2683 30.1206 44.9533 30.3164 44.6344 30.5041C44.3164 30.6915 43.9918 30.865 43.6692 31.0197C43.3573 31.1695 43.0783 31.2726 42.8368 31.3269C42.3042 31.4539 41.7692 31.5005 41.2461 31.4643C40.7188 31.4286 40.1984 31.3255 39.6989 31.158C39.2016 30.9911 38.7298 30.7536 38.2966 30.452C37.8616 30.1492 37.4667 29.7895 37.1237 29.3829L37.1222 29.3813C36.6925 28.8807 36.3558 28.3028 36.1212 27.6634C35.8862 27.0232 35.767 26.3473 35.767 25.6545C35.767 24.8576 35.9124 24.1005 36.1991 23.4045C36.4865 22.7073 36.8953 22.0791 37.4179 21.5332C37.9175 20.9867 38.5195 20.5569 39.2063 20.2554C39.8932 19.954 40.6453 19.8013 41.4419 19.8013C41.8777 19.8013 42.316 19.8575 42.7441 19.9684C43.1768 20.0805 43.5993 20.2367 43.9997 20.4323C44.4012 20.6289 44.785 20.8681 45.1406 21.1436C45.4963 21.4188 45.8146 21.7203 46.0867 22.0397L46.1638 22.13H46.7273V17.373H45.8094L45.7584 17.5633Z" fill="#FEFEFE"/>
<mask id="mask1" mask-type="alpha" maskUnits="userSpaceOnUse" x="63" y="16" width="14" height="18">
<path fill-rule="evenodd" clip-rule="evenodd" d="M63.606 16.7922H76.0759V33.5478H63.606V16.7922Z" fill="white"/>
</mask>
<g mask="url(#mask1)">
<path fill-rule="evenodd" clip-rule="evenodd" d="M63.631 17.7744L63.8302 17.8208C64.1718 17.9005 64.4463 18.0013 64.6456 18.1202C64.85 18.2427 65.0065 18.3577 65.1204 18.4713C65.269 18.606 65.3718 18.7461 65.4253 18.8869C65.4847 19.0434 65.5309 19.2778 65.5631 19.5833V33.5478H76.0759V31.5282H67.9133V26.102H75.1846V24.0696H67.9133V18.9412H76.0759V16.7922H63.606L63.631 17.7744Z" fill="#FEFEFE"/>
</g>
<path fill-rule="evenodd" clip-rule="evenodd" d="M103.023 26.437H98.2633L100.643 20.8844L103.023 26.437ZM101.317 16.7739H97.7224V17.8384L97.9575 17.8603C98.0291 17.8671 98.1073 17.8847 98.1892 17.9126C98.2611 17.9372 98.3466 17.9701 98.4459 18.0108C98.5348 18.0473 98.6231 18.0955 98.7081 18.1537L98.7358 18.1703C99.0376 18.3252 99.0725 18.4861 99.0725 18.5936C99.0725 18.623 99.0689 18.6761 99.0522 18.7613C99.037 18.8395 99.0184 18.9286 98.9961 19.0285L92.8555 33.5478H95.2223L97.3926 28.4702H103.906L106.076 33.5478H108.431L101.385 16.9334L101.317 16.7739Z" fill="#FEFEFE"/>
<path fill-rule="evenodd" clip-rule="evenodd" d="M138.288 29.0079L128.807 17.3872L125.205 17.373V18.4554L125.454 18.4658C125.819 18.481 126.109 18.5464 126.319 18.6602C126.537 18.7791 126.702 18.9001 126.801 19.0112C126.915 19.1494 126.998 19.3016 127.049 19.4639V33.5479H128.981V21.6482L138.395 33.4001L138.473 33.4977H140.182V17.3867H138.288V29.0079Z" fill="#FEFEFE"/>
<mask id="mask2" mask-type="alpha" maskUnits="userSpaceOnUse" x="156" y="17" width="6" height="17">
<path fill-rule="evenodd" clip-rule="evenodd" d="M156.998 17.4026H161.088V33.5477H156.998V17.4026Z" fill="white"/>
</mask>
<g mask="url(#mask2)">
<path fill-rule="evenodd" clip-rule="evenodd" d="M156.998 18.3234L157.191 18.3713C157.412 18.4267 157.599 18.488 157.745 18.5534C157.893 18.6205 158.017 18.6852 158.112 18.7456C158.198 18.8004 158.268 18.859 158.321 18.9196C158.39 18.9994 158.453 19.0727 158.501 19.129C158.575 19.2266 158.645 19.3639 158.71 19.5373C158.772 19.7053 158.804 19.9535 158.804 20.275V33.5477H161.088V17.4026H156.998V18.3234Z" fill="#FEFEFE"/>
</g>
<mask id="mask3" mask-type="alpha" maskUnits="userSpaceOnUse" x="177" y="16" width="14" height="18">
<path fill-rule="evenodd" clip-rule="evenodd" d="M177.396 16.8181H191V33.5477H177.396V16.8181Z" fill="white"/>
</mask>
<g mask="url(#mask3)">
<path fill-rule="evenodd" clip-rule="evenodd" d="M181.39 21.1209C181.906 20.5557 182.527 20.1111 183.237 19.7993C183.946 19.4876 184.722 19.3298 185.544 19.3298C185.994 19.3298 186.446 19.3878 186.889 19.5025C187.335 19.6184 187.771 19.7799 188.185 19.9824C188.598 20.1854 188.995 20.4328 189.362 20.718C189.729 21.0029 190.058 21.3147 190.339 21.6448L190.418 21.7383H191V16.8181H190.053L190 17.0149C189.935 17.2587 189.868 17.4559 189.802 17.6005C189.734 17.7473 189.669 17.868 189.608 17.959C189.553 18.041 189.496 18.1071 189.439 18.1548C189.415 18.175 189.392 18.1945 189.368 18.2132C189.008 18.0057 188.639 17.8318 188.27 17.6957C187.848 17.54 187.424 17.4228 187.009 17.3469C186.596 17.2714 186.184 17.2264 185.786 17.2133C185.391 17.2001 185.011 17.2068 184.645 17.2345C183.918 17.3232 183.211 17.5031 182.546 17.7694C181.881 18.0357 181.256 18.3821 180.688 18.799C180.119 19.2172 179.606 19.7153 179.161 20.2794C178.718 20.8428 178.349 21.4618 178.065 22.1188L178.043 22.1692V22.1898C178.034 22.2168 178.011 22.2781 177.958 22.4104C177.885 22.5937 177.81 22.8324 177.728 23.1403C177.649 23.4385 177.574 23.7804 177.504 24.1566C177.432 24.5411 177.396 24.954 177.396 25.3836C177.396 26.1296 177.493 26.8571 177.684 27.5459C177.874 28.2333 178.147 28.8857 178.493 29.485C178.839 30.0844 179.262 30.6384 179.751 31.132C180.24 31.6256 180.792 32.0536 181.391 32.4042C181.989 32.7547 182.639 33.0335 183.321 33.2327C184.005 33.4328 184.73 33.5388 185.479 33.5477C186.482 33.5477 187.456 33.3721 188.376 33.0257C189.292 32.6801 190.143 32.1814 190.905 31.5435L191 31.4641V28.9144L190.57 29.2546C190.371 29.4128 190.113 29.5957 189.806 29.7978C189.496 30.002 189.171 30.2045 188.84 30.3995C188.511 30.5935 188.176 30.7728 187.843 30.9329C187.522 31.0876 187.234 31.1944 186.984 31.2505C186.435 31.382 185.882 31.4301 185.342 31.3928C184.798 31.3557 184.261 31.2492 183.745 31.0759C183.231 30.9032 182.745 30.6576 182.298 30.3457C181.848 30.0323 181.441 29.6603 181.087 29.2399L181.085 29.2382C180.642 28.7208 180.294 28.1231 180.052 27.4615C179.809 26.7992 179.687 26.1002 179.687 25.3836C179.687 24.5593 179.837 23.7763 180.132 23.0566C180.429 22.3353 180.851 21.6855 181.39 21.1209Z" fill="#FEFEFE"/>
</g>
<path fill-rule="evenodd" clip-rule="evenodd" d="M78.1178 1.09548H76.4933V5.99067H75.0707V1.09548H73.0862V0.33984C73.0862 0.152178 73.2473 0 73.4461 0H78.4778V0.755643C78.4778 0.943305 78.3167 1.09548 78.1178 1.09548Z" fill="#FEFEFE"/>
<path fill-rule="evenodd" clip-rule="evenodd" d="M85.6665 0.33984V5.99067H84.281V3.50884H81.6603V5.99067H80.2749V0H81.31C81.5035 0 81.6603 0.152178 81.6603 0.33984V2.41336H84.281V0H85.316C85.5096 0 85.6665 0.152178 85.6665 0.33984Z" fill="#FEFEFE"/>
<path fill-rule="evenodd" clip-rule="evenodd" d="M89.4747 1.03553V2.41341H92.6396V3.41471H89.4747V4.95514H92.4983C92.6956 4.95514 92.8555 5.10732 92.8555 5.29499V5.99067H88.063V0H92.8555V0.695686C92.8555 0.883351 92.6956 1.03553 92.4983 1.03553H89.4747Z" fill="#FEFEFE"/>
<path fill-rule="evenodd" clip-rule="evenodd" d="M104.238 0V5.99067H102.859V2.01122L101.016 4.35616H100.87L99.026 2.01122V5.99067H97.6479V0H98.766C98.8833 0 98.9935 0.0533509 99.0615 0.14306L100.943 2.62744L102.824 0.14306C102.892 0.0533509 103.002 0 103.12 0H104.238Z" fill="#FEFEFE"/>
<path fill-rule="evenodd" clip-rule="evenodd" d="M110.253 3.70567L109.33 1.34366L108.406 3.70567H110.253ZM110.642 4.71552H108.017L107.519 5.99067H106.035L108.569 0H109.838C109.985 0 110.117 0.0844601 110.172 0.213274L112.625 5.99067H111.14L110.642 4.71552Z" fill="#FEFEFE"/>
<path fill-rule="evenodd" clip-rule="evenodd" d="M117.417 4.24956C117.417 4.54944 117.394 4.84007 117.347 5.12132C117.3 5.40284 117.21 5.65233 117.077 5.8694C116.944 6.0866 116.755 6.26092 116.509 6.3925C116.263 6.52395 115.94 6.58974 115.542 6.58974C115.078 6.58974 114.685 6.46727 114.364 6.2226C114.132 6.04533 113.959 5.79557 113.845 5.47358C113.773 5.26817 113.881 5.03784 114.075 4.98545L114.928 4.75431C114.945 4.9135 115.01 5.04802 115.123 5.15817C115.236 5.26831 115.365 5.32338 115.509 5.32338C115.658 5.32338 115.774 5.28197 115.858 5.19944C115.94 5.11676 116.001 5.01439 116.04 4.89206C116.079 4.76972 116.102 4.63667 116.11 4.49276C116.119 4.34912 116.123 4.21607 116.123 4.0936V0H117.088C117.27 0 117.417 0.163069 117.417 0.364325V4.24956Z" fill="#FEFEFE"/>
</svg>
